Exact Audio Copy V0.99 prebeta 1 from 25. May 2007

EAC 抓取日志文件从20. 三月 2011, 12:45

群星 / 民族歌坛名人2

使用驱动器  ：PIONEER DVD-RW  DVR-115   Adapter: 0  ID: 0

读取模式     : 保护
使用精确流   : 是
废除音频缓冲 : 是
使用 C2 指针 : 否

读取偏移校正                   : 48
读取 Lead-In 和 Lead-Out       : 否
用静音填充抓取中丢失偏移的采样 : 是
去除首尾静音块                 : 否
已用接口                       : Win NT 及 2000 本地 Win32 接口

所用输出格式 : 内部 WAV 函数
样本格式     : 44.100 Hz;16 Bit;立体声
使用压缩偏移 : 48


被抓轨 CD 的 TOC

     音轨 |   开始   |   长度   | 起始扇区 | 结尾扇区 
    --------------------------------------------------
       1  |  0:00.32 |  3:59.15 |      32  |   17971  
       2  |  3:59.47 |  1:46.60 |   17972  |   25981  
       3  |  5:46.32 |  1:50.15 |   25982  |   34246  
       4  |  7:36.47 |  1:41.70 |   34247  |   41891  
       5  |  9:18.42 |  2:59.25 |   41892  |   55341  
       6  | 12:17.67 |  1:45.50 |   55342  |   63266  
       7  | 14:03.42 |  1:41.05 |   63267  |   70846  
       8  | 15:44.47 |  2:11.05 |   70847  |   80676  
       9  | 17:55.52 |  2:33.00 |   80677  |   92151  
      10  | 20:28.52 |  2:48.60 |   92152  |  104811  
      11  | 23:17.37 |  3:07.08 |  104812  |  118844  
      12  | 26:24.45 |  2:40.00 |  118845  |  130844  
      13  | 29:04.45 |  2:51.70 |  130845  |  143739  
      14  | 31:56.40 |  3:04.05 |  143740  |  157544  
      15  | 35:00.45 |  3:12.05 |  157545  |  171949  
      16  | 38:12.50 |  3:26.67 |  171950  |  187466  
      17  | 41:39.42 |  2:29.70 |  187467  |  198711  
      18  | 44:09.37 |  2:54.20 |  198712  |  211781  
      19  | 47:03.57 |  1:37.70 |  211782  |  219126  
      20  | 48:41.52 |  2:23.05 |  219127  |  229856  
      21  | 51:04.57 |  1:38.03 |  229857  |  237209  
      22  | 52:42.60 |  3:13.57 |  237210  |  251741  
      23  | 55:56.42 |  2:22.03 |  251742  |  262394  


范围状态及错误

已选择范围

     文件名 E:\20世纪中华歌坛名人百集珍藏版-民族歌坛名人2[lwg188原创]\群星 - 民族歌坛名人2.wav

     峰值电平 99.0 %
     范围质量 100.0 %
     复制 CRC E145E65F
     复制成功

没有错误发生

状态报告结尾
